<svg width="49.25" height="49.25" xmlns="http://www.w3.org/2000/svg">

 <g>
  <title>background</title>
  <rect fill="none" id="canvas_background" height="51.25" width="51.25" y="-1" x="-1"/>
 </g>
 <g>
  <title>Layer 1</title>
  <path fill="#ffffff" id="svg_2" d="m24.625,0c-13.599,0 -24.625,11.023 -24.625,24.625c0,10.082 6.063,18.744 14.739,22.553c-0.069,-1.721 -0.012,-3.783 0.429,-5.654c0.473,-2 3.168,-13.418 3.168,-13.418s-0.787,-1.572 -0.787,-3.896c0,-3.648 2.115,-6.373 4.749,-6.373c2.24,0 3.322,1.682 3.322,3.695c0,2.252 -1.437,5.619 -2.175,8.738c-0.616,2.613 1.31,4.744 3.887,4.744c4.665,0 7.808,-5.992 7.808,-13.092c0,-5.397 -3.635,-9.437 -10.246,-9.437c-7.47,0 -12.123,5.57 -12.123,11.792c0,2.146 0.633,3.658 1.624,4.83c0.455,0.537 0.519,0.754 0.354,1.371c-0.118,0.453 -0.389,1.545 -0.501,1.977c-0.164,0.625 -0.669,0.848 -1.233,0.617c-3.44,-1.404 -5.043,-5.172 -5.043,-9.408c0,-6.994 5.899,-15.382 17.599,-15.382c9.4,0 15.588,6.804 15.588,14.107c0,9.658 -5.369,16.875 -13.285,16.875c-2.659,0 -5.16,-1.438 -6.016,-3.068c0,0 -1.43,5.674 -1.732,6.768c-0.522,1.9 -1.545,3.797 -2.479,5.275c2.215,0.654 4.554,1.01 6.979,1.01c13.598,0 24.623,-11.023 24.623,-24.623c-0.001,-13.603 -11.027,-24.626 -24.624,-24.626z"/>
 </g>
</svg>